<svg width="31" height="47" viewBox="0 0 31 47" fill="none" xmlns="http://www.w3.org/2000/svg">
<path d="M12.7938 0.424808C11.53 -0.398675 11.6922 0.131021 11.53 0.701251C11.53 4.60725 12.2035 12.9665 9.5749 16.7292C9.14632 14.4122 6.90603 11.0517 5.94533 10.0835C4.98463 9.11534 5.08069 9.93157 5.19856 10.4569C6.36863 15.6718 1.10807 23.6709 0.183338 29.2868C0.128886 29.6175 0.0881385 29.9443 0.0607304 30.2666C-0.707754 39.3043 5.91032 46.2741 14.6226 46.2741C19.2553 46.2741 22.5255 44.7553 25.0773 42.1669C27.6292 39.5785 28.5934 36.9223 29.6217 33.7289C31.0078 29.4242 30.531 22.5296 28.7237 18.4224C28.4377 17.7726 27.8154 17.0258 27.5665 18.2704C27.1931 19.764 26.8835 21.0339 25.6121 22.5296C22.1272 6.22525 14.1248 1.5927 12.7938 0.424808Z" fill="#EF5261"/>
<path d="M15.1322 16.6059C14.4367 16.0333 14.4978 16.3584 14.3637 16.686C14.1044 19.0038 13.9491 24.0089 12.1391 26.0671C12.0385 24.6637 10.9319 22.5209 10.426 21.8825C9.92007 21.2442 9.92289 21.7349 9.95797 22.0545C10.3062 25.2267 6.65273 29.624 5.73098 32.895C5.6767 33.0877 5.63082 33.2789 5.59315 33.4683C4.53695 38.7802 8.00229 43.3556 13.1734 43.9342C15.9231 44.2419 17.9649 43.5578 19.6515 42.1913C21.338 40.8249 22.0866 39.3127 22.909 37.486C24.0175 35.0237 24.1923 30.9008 23.3923 28.3436C23.2657 27.939 22.9459 27.4545 22.7155 28.1765C22.3947 29.038 22.1267 29.771 21.2727 30.5741C20.2868 20.6677 15.8446 17.3873 15.1322 16.6059Z" fill="#F6C863"/>
</svg>
